<svg xmlns="http://www.w3.org/2000/svg" viewBox="0, 0, 410, 164"><path d="M334 79.9c-5.1 0-9.3 4.2-9.3 9.3 0 3.4 1.9 6.4 4.7 8v10.6h9.3V97.2c2.8-1.6 4.7-4.6 4.7-8-.1-5.2-4.3-9.3-9.4-9.3zM136 163h125v-40h-80v-16h76V75h-76V59h80V19H136v144zM343.8 19H269v144h68c50.4 0 72-27.5 72-71.9 0-36.5-17-72.1-65.2-72.1zm18.2 93.4c0 2.6-2.1 4.6-4.7 4.6h-46.7c-2.6 0-4.7-2.1-4.7-4.6V75.3c0-2.6 2.1-4.6 4.7-4.6h4.7c0-10.3 8.4-18.6 18.7-18.6 10.3 0 18.7 8.3 18.7 18.6h4.7c2.6 0 4.7 2.1 4.7 4.6v37.1zM1 59h39v104h49V59h40V19H1v40zm333-2.4c-7.7 0-14 6.2-14 13.9h28c0-7.6-6.3-13.9-14-13.9z" fill="#E52E29"/></svg>