<svg xmlns="http://www.w3.org/2000/svg" viewBox="0, 0, 410, 164"><g fill="#E62B1E"><path d="M43 54H2V16h127v38H88v109H43zM136 16h124v38h-78v18h78v35h-78v18h78v38H136zM341.898 16c48.9 0 66.178 36.172 66.178 73.15 0 45.022-23.832 73.85-75.008 73.85H267V16h74.898zM331.1 52c-10.3 0-18.7 8.3-18.7 18.6h-4.7c-2.6 0-4.7 2-4.7 4.6v37.1c0 2.5 2.1 4.6 4.7 4.6h46.7c2.6 0 4.7-2 4.7-4.6h.1V75.2c0-2.5-2.1-4.6-4.7-4.6h-4.7c0-10.3-8.4-18.6-18.7-18.6zm0 27.8c5.1 0 9.3 4.1 9.4 9.3 0 3.4-1.9 6.4-4.7 8v10.6h-9.3V97.1c-2.8-1.6-4.7-4.6-4.7-8 0-5.1 4.2-9.3 9.3-9.3zm0-23.3c7.7 0 14 6.3 14 13.9h-28c0-7.7 6.3-13.9 14-13.9z"/></g></svg>